Coordinates
version=1
nRows=19
nColumns=34
inDegrees=yes

Units are S.I. units (second, meters, Newtons, ...)
If the header above contains a line with 'inDegrees', this indicates whether rotational values are in degrees (yes) or radians (no).

endheader
time	pelvis_tilt	pelvis_list	pelvis_rotation	pelvis_tx	pelvis_ty	pelvis_tz	hip_flexion_r	hip_adduction_r	hip_rotation_r	knee_angle_r	ankle_angle_r	subtalar_angle_r	mtp_angle_r	hip_flexion_l	hip_adduction_l	hip_rotation_l	knee_angle_l	ankle_angle_l	subtalar_angle_l	mtp_angle_l	lumbar_extension	lumbar_bending	lumbar_rotation	arm_flex_r	arm_add_r	arm_rot_r	elbow_flex_r	pro_sup_r	arm_flex_l	arm_add_l	arm_rot_l	elbow_flex_l	pro_sup_l
      2.58333330	     -1.54782708	      1.42698718	     -0.37184791	      1.80588742	      0.90028505	     -0.08593531	     -2.04519903	     -3.61179989	      5.64745658	      0.00000000	      4.70228174	    -19.26247137	      0.00000000	     -2.90113792	     -3.13145634	     -1.33747233	      0.00000000	      4.49297305	     -5.39665803	      0.00000000	     -5.43373650	      0.54069679	      0.75109069	      7.88917520	     -9.18416633	     35.60944588	     88.62055466	     86.30177908	      5.43127401	     -8.20637822	     30.86767186	     83.15960224	     89.33808299
      2.60000000	     -1.55721740	      1.42028092	     -0.38154650	      1.80624722	      0.90044153	     -0.08618186	     -2.05632973	     -3.62298089	      5.64496327	      0.00000000	      4.70085406	    -19.26252582	      0.00000000	     -2.89500587	     -3.13406455	     -1.33673943	      0.00000000	      4.49043656	     -5.39281945	      0.00000000	     -5.43295193	      0.53497799	      0.74844250	      7.89062154	     -9.18624691	     35.61097657	     88.62100619	     86.30010807	      5.43451074	     -8.21033171	     30.86838443	     83.15596775	     89.33717943
      2.61666670	     -1.56979648	      1.41183355	     -0.39019856	      1.80655216	      0.90061568	     -0.08643897	     -2.06827999	     -3.63795494	      5.64192063	      0.00000000	      4.69958728	    -19.26312079	      0.00000000	     -2.89089614	     -3.13571264	     -1.33624815	      0.00000000	      4.48832286	     -5.38973055	      0.00000000	     -5.43276656	      0.53221551	      0.74617614	      7.89158970	     -9.18794159	     35.61248837	     88.62106708	     86.29868882	      5.43780459	     -8.21415098	     30.86903720	     83.15291398	     89.33643225
      2.63333330	     -1.58176071	      1.40359952	     -0.39795297	      1.80655687	      0.90067086	     -0.08645836	     -2.07965850	     -3.65451103	      5.63812023	      0.00000000	      4.69857899	    -19.26430260	      0.00000000	     -2.88756158	     -3.13581555	     -1.33570418	      0.00000000	      4.48679094	     -5.38715438	      0.00000000	     -5.43266809	      0.53195279	      0.74377925	      7.89166991	     -9.18988329	     35.61407900	     88.62069053	     86.29740775	      5.44036380	     -8.21716339	     30.87015624	     83.15021425	     89.33580068
      2.65000000	     -1.58858107	      1.39360143	     -0.39771545	      1.80628311	      0.90023990	     -0.08607444	     -2.08439514	     -3.66167785	      5.63721027	      0.00000000	      4.69842558	    -19.26458998	      0.00000000	     -2.88969874	     -3.13178122	     -1.33554281	      0.00000000	      4.48649520	     -5.38663102	      0.00000000	     -5.43282104	      0.53248277	      0.74316946	      7.89140122	     -9.19052759	     35.61440714	     88.62044279	     86.29717440	      5.44054903	     -8.21732262	     30.87058205	     83.14972759	     89.33569998
      2.66666670	     -1.59356557	      1.40326624	     -0.40265547	      1.80610499	      0.89953835	     -0.08530207	     -2.08976027	     -3.67677183	      5.63282894	      0.00000000	      4.69842612	    -19.26697579	      0.00000000	     -2.88604479	     -3.13769317	     -1.33293639	      0.00000000	      4.48552937	     -5.38346012	      0.00000000	     -5.43497047	      0.53578080	      0.74036513	      7.89039717	     -9.19386990	     35.61710248	     88.61875583	     86.29555820	      5.44177521	     -8.21752762	     30.87385485	     83.14722303	     89.33502055
      2.68333330	     -1.59786088	      1.41497090	     -0.40216300	      1.80630562	      0.89885721	     -0.08459183	     -2.08887265	     -3.68075067	      5.63086436	      0.00000000	      4.69919517	    -19.26922522	      0.00000000	     -2.88664340	     -3.14090176	     -1.32877967	      0.00000000	      4.48475836	     -5.37985087	      0.00000000	     -5.43871698	      0.53660067	      0.73949166	      7.89014764	     -9.19596034	     35.62006479	     88.61705793	     86.29402532	      5.44167633	     -8.21657909	     30.87744263	     83.14537163	     89.33438466
      2.70000000	     -1.60562394	      1.43289476	     -0.40071344	      1.80689490	      0.89824267	     -0.08403298	     -2.08858111	     -3.68103664	      5.63072995	      0.00000000	      4.70066675	    -19.27166771	      0.00000000	     -2.88897670	     -3.15460174	     -1.32259284	      0.00000000	      4.48426571	     -5.37545181	      0.00000000	     -5.44342740	      0.53443985	      0.73964707	      7.89054314	     -9.19739433	     35.62289900	     88.61544836	     86.29251961	      5.44016881	     -8.21417543	     30.88144993	     83.14417981	     89.33377121
      2.71666670	     -1.61916894	      1.45113575	     -0.40036883	      1.80758074	      0.89815438	     -0.08392021	     -2.08851026	     -3.68099513	      5.63125133	      0.00000000	      4.70278738	    -19.27471602	      0.00000000	     -2.89538578	     -3.17758975	     -1.31522716	      0.00000000	      4.48464150	     -5.37087896	      0.00000000	     -5.44796859	      0.52916902	      0.74006527	      7.89086437	     -9.19876724	     35.62505117	     88.61385959	     86.29112543	      5.43703619	     -8.21130477	     30.88543505	     83.14331743	     89.33321290
      2.73333330	     -1.64143185	      1.46290354	     -0.40207514	      1.80840613	      0.89850808	     -0.08418870	     -2.08894144	     -3.68191468	      5.63210864	      0.00000000	      4.70566383	    -19.27971759	      0.00000000	     -2.90653229	     -3.20882323	     -1.30213008	      0.00000000	      4.48563938	     -5.36292570	      0.00000000	     -5.45427314	      0.51807840	      0.73998426	      7.88978059	     -9.20319774	     35.62682895	     88.61035673	     86.28905311	      5.42974058	     -8.20785959	     30.89105666	     83.14177396	     89.33239860
      2.75000000	     -1.66596813	      1.46815993	     -0.40261124	      1.80923252	      0.89988802	     -0.08426551	     -2.08520528	     -3.68252378	      5.63299821	      0.00000000	      4.70705225	    -19.28441653	      0.00000000	     -2.92107524	     -3.23632092	     -1.28692874	      0.00000000	      4.48750684	     -5.35417234	      0.00000000	     -5.46212555	      0.50747822	      0.73810603	      7.88657461	     -9.21392221	     35.62600128	     88.60381175	     86.28683852	      5.42042303	     -8.20641281	     30.89565357	     83.13924062	     89.33154940
      2.76666670	     -1.71033823	      1.36503267	     -0.24268591	      1.81001963	      0.90092329	     -0.08421616	     -2.09723909	     -3.54821846	      5.56376249	      0.00000000	      4.58431783	    -19.58623576	      0.00000000	     -2.90563186	     -3.39837037	     -0.86490306	      0.00000000	      4.81319054	     -5.01618112	      0.00000000	     -5.40661591	      0.49046284	      0.65812443	      7.78149350	     -9.43318981	     35.55268850	     88.17242614	     86.06528679	      5.30090248	     -8.16575439	     30.96150783	     83.06178636	     89.23535821
      2.78333330	     -1.73299072	      1.37401509	     -0.24138292	      1.81026808	      0.90099399	     -0.08385044	     -2.09287311	     -3.55696861	      5.56733737	      0.00000000	      4.57885286	    -19.58410285	      0.00000000	     -2.92314073	     -3.41222608	     -0.86404649	      0.00129418	      4.81187380	     -5.01371806	      0.00000000	     -5.41489625	      0.49163255	      0.65408086	      7.78011707	     -9.44166486	     35.54885148	     88.16663354	     86.06291787	      5.29873800	     -8.17072547	     30.96029673	     83.05778315	     89.23432361
      2.80000000	     -1.76047432	      1.35847623	     -0.28416590	      1.81006741	      0.90016771	     -0.08362618	     -2.04788998	     -3.53476489	      5.63000349	      0.00000000	      4.48270023	    -19.53834149	      0.00000000	     -2.91477961	     -3.44007679	     -0.83094484	      0.00000000	      4.80370614	     -4.96603321	      0.00000000	     -5.52070692	      0.47938609	      0.59398214	      7.75947853	     -9.58189256	     35.47589271	     88.07319457	     86.02937785	      5.26620355	     -8.26569762	     30.92672714	     82.99639284	     89.21969651
      2.81666670	     -1.77777329	      1.36553056	     -0.28128317	      1.81035339	      0.89911384	     -0.08351770	     -2.05385297	     -3.53519276	      5.63280776	      0.00000000	      4.47744445	    -19.53633637	      0.00000000	     -2.92542350	     -3.44899453	     -0.83088297	      0.00082393	      4.80352617	     -4.96397076	      0.00000000	     -5.52274077	      0.48127038	      0.59138048	      7.76405939	     -9.58544363	     35.47062532	     88.07020832	     86.02730885	      5.26952052	     -8.26758976	     30.92389506	     82.99506860	     89.21880475
      2.83333330	     -1.79977046	      1.37058870	     -0.28664134	      1.81097151	      0.89873266	     -0.08348226	     -2.05658179	     -3.53325616	      5.63653902	      0.00000000	      4.47145159	    -19.53383807	      0.00000000	     -2.93394975	     -3.45913233	     -0.82844851	      0.00262866	      4.80376810	     -4.96020000	      0.00000000	     -5.52800427	      0.48323656	      0.58237534	      7.77169202	     -9.59336375	     35.46116522	     88.06728077	     86.02484533	      5.27829833	     -8.27156979	     30.91921078	     82.99319385	     89.21775905
      2.85000000	     -1.85049096	      1.33298986	     -0.39619005	      1.81134166	      0.89851202	     -0.08356165	     -1.97568098	     -3.49323209	      5.68397900	      0.00000000	      4.41597911	    -19.50705605	      0.00000000	     -2.91893417	     -3.50526537	     -0.79071517	      0.00000000	      4.82010774	     -4.91001672	      0.00000000	     -5.58116099	      0.51375816	      0.43325042	      7.86393450	     -9.70076774	     35.33364878	     88.04560171	     85.99749370	      5.40093999	     -8.33621810	     30.86176961	     82.96746956	     89.20662205
      2.86666670	     -1.88244797	      1.33478942	     -0.38734237	      1.81205275	      0.89814844	     -0.08398126	     -1.98528307	     -3.49110392	      5.69048112	      0.00000000	      4.41056639	    -19.50459231	      0.00000000	     -2.92197256	     -3.51152037	     -0.79341563	      0.00203029	      4.82318522	     -4.90725715	      0.00000000	     -5.58989536	      0.52135174	      0.42640214	      7.87858843	     -9.70306513	     35.32134153	     88.04581298	     85.99440466	      5.40995075	     -8.34490926	     30.85633251	     82.96318186	     89.20539925
      2.88333330	     -1.96999637	      1.28971355	     -0.35693109	      1.81231299	      0.89768316	     -0.08466568	     -1.90075627	     -3.44592868	      5.75208563	      0.00000000	      4.34629340	    -19.52057494	      0.00000000	     -2.79525611	     -3.56128084	     -0.85544662	      0.04169994	      4.92805949	     -4.84894572	      0.00000000	     -5.71585655	      0.71167161	      0.17919228	      8.09566110	     -9.70473951	     35.08291993	     88.07866531	     85.92261262	      5.56526762	     -8.53682756	     30.77852967	     82.84357425	     89.17917805
